<?xml version="1.0" encoding="ISO-8859-1" standalone="no" ?>
<!DOCTYPE svg PUBLIC "-//W3C//DTD SVG 20010904//EN"
          "http://www.w3.org/TR/2001/REC-SVG-20010904/DTD/svg10.dtd">
<svg width="512" height="512" viewBox="-180 -128 1024 1024" xmlns="http://www.w3.org/2000/svg">

<g transform="scale(4.0)">

<rect x="31" y="75" width="108" height="25" style="fill:deepskyblue; stroke:none"/>
<circle cx="137" cy="75" r="25"             style="fill:deepskyblue; stroke:none"/> 
<circle cx="100" cy="42" r="42"             style="fill:deepskyblue; stroke:none"/>
<circle cx="31" cy="69" r="31"              style="fill:deepskyblue; stroke:none"/>
<circle cx="50" cy="31" r="31"              style="fill:gold; stroke:none"/>

<g transform="translate(52,65) rotate(-45)">
<rect x="0" y="0" width="46" height="46" style="fill:deepskyblue; stroke:none"/>
<line x1="13" y1="10" x2="33" y2="10" stroke="black" stroke-width="8" stroke-linecap="round"/>
<line x1="13" y1="25" x2="33" y2="25" stroke="black" stroke-width="8" stroke-linecap="round"/>
</g>



<g transform="translate(52,65) rotate(-45)">
<line x1="23" y1="-57" x2="23" y2="28" stroke="black"/>
</g>

<line x1="-10" y1="0" x2="-10" y2="100" style="fill:none; stroke:black;stroke-width:2"/>
<text x="-25" y="50" fill="black">1</text>
<line x1="0" y1="-10" x2="162" y2="-10" style="fill:none; stroke:black;stroke-width:2"/>
<text x="84" y="-20" fill="black">&#x03d5;</text>

<circle cx="137" cy="75" r="25" style="fill:none; stroke:red"/> 
<circle cx="100" cy="42" r="42" style="fill:none; stroke:red"/>
<circle cx="31" cy="69" r="31" style="fill:none; stroke:red"/>
<circle cx="50" cy="31" r="31" style="fill:none; stroke:red"/>

<line x1="0" y1="69" x2="62" y2="69" style="fill:none;stroke:red;stroke-width:1"/>
<line x1="19" y1="31" x2="81" y2="31" style="fill:none;stroke:red;stroke-width:1"/>
<polyline points="162,0 100,0 100,5" style="fill:none;stroke:red;stroke-width:1"/>
<text x="17" y="85" fill="red">1/&#x03d5;</text>

<line x1="112" y1="75" x2="162" y2="75" style="fill:none;stroke:darkblue;stroke-width:1"/>
<polyline points="0,0 50,0 50,5" style="fill:none;stroke:darkblue;stroke-width:1" />
<text x="1" y="15" fill="darkblue">1/2</text>

<line x1="58" y1="42" x2="142" y2="42" style="fill:none;stroke:green;stroke-width:1"/>
<text x="100" y="32" fill="green">&#x03d5;/2</text>

</g>

</svg>

