<?xml version="1.0" encoding="ISO-8859-1" standalone="no" ?>
<!DOCTYPE svg PUBLIC "-//W3C//DTD SVG 20010904//EN"
          "http://www.w3.org/TR/2001/REC-SVG-20010904/DTD/svg10.dtd">
<svg width="256" height="256" viewBox="-47 -78 256 256"
  xmlns:xlink="http://www.w3.org/1999/xlink"
  xmlns="http://www.w3.org/2000/svg">

  <rect x="30" y="50" width="108" height="50" style="fill:blue; stroke:none"/>

  <circle cx="31" cy="69" r="31"              style="fill:blue;stroke:none"/>
  <circle cx="100" cy="42" r="42"             style="fill:blue;stroke:none"/>
  <circle cx="137" cy="75" r="25"             style="fill:blue;stroke:none"/>

  <circle cx="50" cy="31" r="31"              style="fill:gold;stroke:none"/>

  <polygon points="81,31 50,62 81,62"         style="fill:blue; stroke:none"/>
  <circle cx="77" cy="31" r="4"               style="fill:gold; stroke:none"/>
  <circle cx="50" cy="58" r="4"               style="fill:gold; stroke:none"/>
  <line x1="77" y1="31" x2="50" y2="58"       stroke="gold" stroke-width="8"/>

  <g transform="translate(67.5,48.5) rotate(-45)">
    <line x1="-10" y1="10" x2="10" y2="10" stroke="gold" stroke-width="8" stroke-linecap="round"/>
    <line x1="-10" y1="25" x2="10" y2="25" stroke="gold" stroke-width="8" stroke-linecap="round"/>
  </g>

  <g transform="translate(50,31) rotate(-90)">
    <line x1="40" y1="0" x2="70" y2="0" stroke="gold" stroke-width="8" stroke-linecap="round"/>
  </g>

  <g transform="translate(50,31) rotate(-135)">
    <line x1="40" y1="0" x2="70" y2="0" stroke="gold" stroke-width="8" stroke-linecap="round"/>
  </g>

  <g transform="translate(50,31) rotate(-180)">
    <line x1="40" y1="0" x2="70" y2="0" stroke="gold" stroke-width="8" stroke-linecap="round"/>
  </g>

  <g transform="translate(50,31) rotate(-112.5)">
    <line x1="50" y1="0" x2="70" y2="0" stroke="gold" stroke-width="4" stroke-linecap="round"/>
  </g>

  <g transform="translate(50,31) rotate(-157.5)">
    <line x1="50" y1="0" x2="70" y2="0" stroke="gold" stroke-width="4" stroke-linecap="round"/>
  </g>

  <line x1="-1" y1="-20" x2="119" y2="100" stroke="black" stroke-width="2"/>

  <line x1="50" y1="31" x2="81" y2="31" stroke="black" stroke-width="1"/>
  <line x1="50" y1="31" x2="50" y2="62" stroke="black" stroke-width="1"/>

  <line x1="81" y1="31" x2="50" y2="62" stroke="black" stroke-width="1"/>

</svg>
